# xmcd
#
# Track frame offsets:
# 150
# 28669
# 76034
# 104981
# 176150
# 203114
# 259716
# 267521
#
# Disc length: 4244 seconds
#
# Revision: 1
# Processed by: cddbd v1.4PL0 Copyright (c) Steve Scherf et al.
# Submitted via: plextools 2.06
#
DISCID=6f109208
DTITLE=No Spaghetti Edition - Listen... And Tell Me What Was
DYEAR=1900
DGENRE=Cabaret
TTITLE0=No Spaghetti Edition - Mir 1.4
TTITLE1=No Spaghetti Edition - Drop the Boy
TTITLE2=No Spaghetti Edition - Moscowskaja
TTITLE3=No Spaghetti Edition - If Mountains Could Sing
TTITLE4=No Spaghetti Edition - Night, the Death and the Universe
TTITLE5=No Spaghetti Edition - Country Practice
TTITLE6=No Spaghetti Edition - Spaghetti Fingers
TTITLE7=No Spaghetti Edition - Mr. Thompson
EXTD=
EXTT0=
EXTT1=
EXTT2=
EXTT3=
EXTT4=
EXTT5=
EXTT6=
EXTT7=
PLAYORDER=
